<svg xmlns="http://www.w3.org/2000/svg" width="75" height="61" viewBox="0 0 75 61">
    <g fill="none" fill-rule="evenodd">
        <g fill-rule="nonzero">
            <g>
                <g>
                    <g>
                        <path fill="#2A8BA7" d="M74.53 46.141l-7.9-17.127c-.234-.547-.781-.86-1.407-.86h-8.602v3.05h7.664l6.49 14.077H4.302l6.491-14.077h7.664v-3.05H9.854c-.626 0-1.095.313-1.408.86L.547 46.141c-.078.156-.156.391-.156.626v12.2c0 .86.704 1.564 1.564 1.564H73.2c.86 0 1.564-.704 1.564-1.564v-12.2c-.078-.235-.156-.47-.235-.626z" transform="translate(-169 -970) translate(0 170) translate(169 800)"/>
                        <path fill="#3FB4D6" d="M37.46 21.428c.548.704.86 1.486 1.017 2.346.313 1.72-.156 3.363-1.33 4.693-.782.86-1.876 1.33-2.971 1.33-.626 0-1.173-.157-1.72-.392-3.13-1.486-7.509-3.597-11.262-5.63v12.903h-3.676c-.782 0-1.486.548-1.564 1.251-.157.939.547 1.8 1.486 1.8h40.197c.782 0 1.486-.548 1.564-1.252.157-.939-.547-1.799-1.486-1.799h-3.753V22.21c0-.469-.313-.782-.783-.782H37.46z" transform="translate(-169 -970) translate(0 170) translate(169 800)"/>
                        <path fill="#217F9A" d="M15.641 17.283c2.659 2.425 14.468 8.055 17.909 9.698.547.234 1.173.078 1.642-.313.548-.547.782-1.251.782-1.877 0-1.017-.547-2.033-1.564-2.503-3.519-1.798-8.055-4.457-7.116-6.49.782-1.565 4.223-1.252 12.356 2.971h9.541C45.828 15.406 37.538 7.273 34.645 6.022c-3.207-1.408-10.401-.157-12.826-.548-1.798-.312-4.38-3.05-6.413-4.614C14.86.391 14 .47 13.451.938L6.726 7.273c-.626.626-.626 1.642.078 2.19 2.346 1.955 5.943 5.161 8.837 7.82z" transform="translate(-169 -970) translate(0 170) translate(169 800)"/>
                    </g>
                </g>
            </g>
        </g>
    </g>
</svg>
